<svg width="57" height="51" viewBox="0 0 57 51" fill="none" xmlns="http://www.w3.org/2000/svg">
<path fill-rule="evenodd" clip-rule="evenodd" d="M16.5387 11.6136L16.4851 11.5666L16.4347 11.5165C16.2614 11.3439 15.2491 11.1674 14.5666 11.1674C13.8878 11.1674 13.5433 11.344 13.3057 11.5658C13.2823 11.5877 12.9474 11.9832 12.9474 13.4459V37.5941C12.9474 38.8848 13.2083 39.395 13.3231 39.5477C13.5562 39.7251 13.915 39.8727 14.5666 39.8727C15.2928 39.8727 16.3221 39.691 16.4859 39.5381C16.5756 39.4543 16.9126 39.0093 16.9126 37.5941V13.4459C16.9126 12.0114 16.567 11.6383 16.5387 11.6136ZM11.693 41.0439C11.0088 40.3624 10.6667 39.2125 10.6667 37.5941V13.4459C10.6667 11.8275 11.0088 10.6989 11.693 10.0601C12.4228 9.37862 13.3807 9.03791 14.5666 9.03791C16.4793 9.03791 17.4144 9.37862 18.0985 10.0601C18.8284 10.6989 19.1933 11.8275 19.1933 13.4459V37.5941C19.1933 39.2125 18.8284 40.3624 18.0985 41.0439C17.4144 41.6827 16.4793 42.0021 14.5666 42.0021C13.3807 42.0021 12.4228 41.6827 11.693 41.0439ZM25.4349 46.9785L25.4262 46.9869C22.9152 49.4406 19.4138 50.52 14.5666 50.52C10.4461 50.52 6.94479 49.4406 4.43377 46.9869L4.42512 46.9785L4.41658 46.9699C1.93913 44.4953 0.859985 41.1146 0.859985 37.1469V13.8931C0.859985 9.93338 1.93526 6.56376 4.42514 4.12544C6.93238 1.62649 10.4364 0.52002 14.5666 0.52002C19.4236 0.52002 22.9276 1.62648 25.4348 4.12539C27.9247 6.56372 29 9.93336 29 13.8931V37.1469C29 41.1146 27.9208 44.4953 25.4434 46.9699L25.4349 46.9785ZM23.7773 5.58816C21.816 3.62905 18.988 2.64949 14.5666 2.64949C10.872 2.64949 8.044 3.62905 6.08265 5.58816C4.1213 7.50468 3.14062 10.273 3.14062 13.8931V37.1469C3.14062 40.767 4.1213 43.5566 6.08265 45.5158C8.044 47.4323 10.872 48.3905 14.5666 48.3905C18.988 48.3905 21.816 47.4323 23.7773 45.5158C25.7387 43.5566 26.7194 40.767 26.7194 37.1469V13.8931C26.7194 10.273 25.7387 7.50468 23.7773 5.58816ZM36.6844 6.6529H38.965C40.2854 6.6529 41.1896 6.51475 41.7694 6.32526L41.7855 6.32001L41.8016 6.31499C42.5275 6.08905 42.9985 5.81834 43.3021 5.55664C43.6902 5.22217 44.003 4.83406 44.246 4.3803C44.5598 3.79424 44.8385 3.16391 45.0801 2.48716L45.5999 1.03109H56.86V50.0089H42.5V15.8948H36.6844V6.6529ZM44.7806 13.7653V47.8795H54.5793V3.16056H47.2437C46.9701 3.92717 46.6508 4.65119 46.2859 5.33263C45.921 6.01406 45.442 6.61031 44.8491 7.12138C44.2561 7.63245 43.4807 8.03705 42.5228 8.33518C41.6105 8.63331 40.4246 8.78237 38.965 8.78237V13.7653H44.7806Z" fill="url(#paint0_linear_57_135)"/>
<defs>
<linearGradient id="paint0_linear_57_135" x1="34.0889" y1="-0.0336478" x2="34.0889" y2="51.0737" gradientUnits="userSpaceOnUse">
<stop stop-color="#F2C94C"/>
<stop offset="1" stop-color="#F2C94C" stop-opacity="0.5"/>
</linearGradient>
</defs>
</svg>
