<svg width="57" height="51" viewBox="0 0 57 51" fill="none" xmlns="http://www.w3.org/2000/svg">
<path fill-rule="evenodd" clip-rule="evenodd" d="M12.5716 11.4666C12.4336 11.6204 12.1346 12.1133 12.1346 13.4459V37.5941C12.1346 38.9268 12.4336 39.4196 12.5716 39.5734C12.6681 39.6811 12.9051 39.8727 13.645 39.8727C14.3849 39.8727 14.6219 39.6811 14.7185 39.5734C14.8564 39.4196 15.1554 38.9268 15.1554 37.5941V13.4459C15.1554 12.1133 14.8564 11.6204 14.7185 11.4666C14.6219 11.359 14.3849 11.1674 13.645 11.1674C12.9051 11.1674 12.6681 11.359 12.5716 11.4666ZM4.18277 46.9117C1.89725 44.4822 0.859985 41.0798 0.859985 37.1469V13.8931C0.859985 9.96026 1.89725 6.55789 4.18277 4.12829C6.48695 1.67888 9.77501 0.52002 13.645 0.52002C17.515 0.52002 20.8031 1.67888 23.1073 4.12829C25.3928 6.55789 26.4301 9.96026 26.4301 13.8931V37.1469C26.4301 41.0798 25.3928 44.4822 23.1073 46.9117C20.8031 49.3612 17.515 50.52 13.645 50.52C9.77501 50.52 6.48695 49.3612 4.18277 46.9117ZM38.6291 19.2381H43.5006C44.5443 19.2381 44.9213 19.0038 45.0754 18.8479C45.2391 18.6822 45.5853 18.1648 45.5853 16.6401V14.1486C45.5853 12.2941 45.2439 11.6279 45.0819 11.4288C45.0171 11.3491 44.8612 11.1674 44.075 11.1674C43.3351 11.1674 43.098 11.359 43.0015 11.4666C42.8636 11.6204 42.5646 12.1133 42.5646 13.4459V18.4502H31.6728V13.8931C31.6728 9.98736 32.6482 6.58694 34.8805 4.14922C37.1408 1.68092 40.3944 0.52002 44.2664 0.52002C48.1384 0.52002 51.3921 1.68092 53.6524 4.14922C55.8846 6.58694 56.86 9.98736 56.86 13.8931V15.043C56.86 17.6434 56.4478 19.9708 55.4246 21.9078C54.9468 22.8124 54.3513 23.6016 53.6444 24.2763C55.9902 26.5892 56.86 29.9541 56.86 33.6333V37.1469C56.86 41.0527 55.8846 44.4531 53.6524 46.8908C51.3921 49.3591 48.1384 50.52 44.2664 50.52C40.3944 50.52 37.1408 49.3591 34.8805 46.8908C32.6482 44.4531 31.6728 41.0527 31.6728 37.1469V31.3122H42.5646V37.5941C42.5646 38.9268 42.8636 39.4196 43.0015 39.5734C43.098 39.6811 43.3351 39.8727 44.075 39.8727C44.8627 39.8727 45.0239 39.6898 45.0888 39.6109C45.2461 39.4196 45.5853 38.7716 45.5853 36.9553V33.4417C45.5853 31.511 45.2393 30.7199 44.9763 30.4035C44.7993 30.1905 44.4036 29.8854 43.1177 29.8854H38.6291V19.2381ZM51.913 25.5754C51.3204 25.0413 50.6251 24.5946 49.8186 24.2423C50.6314 23.9046 51.3372 23.4747 51.9407 22.9499C53.8487 21.2907 54.7327 18.6831 54.7327 15.043V13.8931C54.7327 6.73807 51.1588 2.64949 44.2664 2.64949C37.374 2.64949 33.8001 6.73807 33.8001 13.8931V16.3207H40.4373V13.4459C40.4373 10.2517 41.8413 9.03791 44.075 9.03791C46.3086 9.03791 47.7126 10.1239 47.7126 14.1486V16.6401C47.7126 20.2176 46.1172 21.3675 43.5006 21.3675H40.7564V27.756H43.1177C46.3086 27.756 47.7126 29.2892 47.7126 33.4417V36.9553C47.7126 40.9161 46.3086 42.0021 44.075 42.0021C41.8413 42.0021 40.4373 40.7883 40.4373 37.5941V33.4417H33.8001V37.1469C33.8001 44.302 37.374 48.3905 44.2664 48.3905C51.1588 48.3905 54.7327 44.302 54.7327 37.1469V33.6333C54.7327 30.1396 53.8997 27.3661 51.913 25.5754ZM13.645 9.03791C11.4114 9.03791 10.0073 10.2517 10.0073 13.4459V37.5941C10.0073 40.7883 11.4114 42.0021 13.645 42.0021C15.8787 42.0021 17.2827 40.7883 17.2827 37.5941V13.4459C17.2827 10.2517 15.8787 9.03791 13.645 9.03791ZM13.645 48.3905C6.75259 48.3905 2.98728 44.302 2.98728 37.1469V13.8931C2.98728 6.73807 6.75259 2.64949 13.645 2.64949C20.5375 2.64949 24.3028 6.73807 24.3028 13.8931V37.1469C24.3028 44.302 20.5375 48.3905 13.645 48.3905Z" fill="url(#paint0_linear_57_141)"/>
<defs>
<linearGradient id="paint0_linear_57_141" x1="31.8546" y1="-0.0336477" x2="31.8546" y2="51.0737" gradientUnits="userSpaceOnUse">
<stop stop-color="#F2C94C"/>
<stop offset="1" stop-color="#F2C94C" stop-opacity="0.5"/>
</linearGradient>
</defs>
</svg>
