<svg width="57" height="51" viewBox="0 0 57 51" fill="none" xmlns="http://www.w3.org/2000/svg">
<path fill-rule="evenodd" clip-rule="evenodd" d="M12.492 11.4666C12.355 11.6204 12.0581 12.1133 12.0581 13.4459V37.5941C12.0581 38.9268 12.355 39.4196 12.492 39.5734C12.5879 39.6811 12.8233 39.8727 13.5582 39.8727C14.293 39.8727 14.5285 39.6811 14.6244 39.5734C14.7613 39.4196 15.0583 38.9268 15.0583 37.5941V13.4459C15.0583 12.1133 14.7613 11.6204 14.6244 11.4666C14.5285 11.359 14.293 11.1674 13.5582 11.1674C12.8233 11.1674 12.5879 11.359 12.492 11.4666ZM4.1602 46.9117C1.8902 44.4822 0.859985 41.0798 0.859985 37.1469V13.8931C0.859985 9.96026 1.8902 6.55789 4.1602 4.12829C6.44873 1.67888 9.71447 0.52002 13.5582 0.52002C17.4019 0.52002 20.6677 1.67888 22.9562 4.12829C25.2262 6.55789 26.2564 9.96026 26.2564 13.8931V37.1469C26.2564 41.0798 25.2262 44.4822 22.9562 46.9117C20.6677 49.3612 17.4019 50.52 13.5582 50.52C9.71447 50.52 6.44873 49.3612 4.1602 46.9117ZM31.8439 50.0089V42.3854C31.8439 34.9449 35.8215 30.5685 39.2438 26.8032L39.3077 26.7329C42.7979 22.8925 45.6619 19.6831 45.6619 14.1486C45.6619 12.2941 45.3228 11.6279 45.1619 11.4288C45.0976 11.3491 44.9427 11.1674 44.1618 11.1674C43.4269 11.1674 43.1915 11.359 43.0956 11.4666C42.9586 11.6204 42.6617 12.1133 42.6617 13.4459V20.3667H31.8439V13.8931C31.8439 9.98736 32.8126 6.58694 35.0297 4.14922C37.2747 1.68092 40.5062 0.52002 44.3519 0.52002C48.1977 0.52002 51.4292 1.68092 53.6741 4.14922C55.8913 6.58694 56.86 9.98736 56.86 13.8931C56.86 21.7212 52.9538 27.0461 49.3943 31.1332C48.7735 31.8461 48.1831 32.5006 47.6259 33.1185C46.5218 34.3427 45.5475 35.4229 44.7232 36.5274C43.9127 37.6135 43.4047 38.5308 43.1579 39.3616H56.2261V50.0089H31.8439ZM40.9291 39.6706C40.8874 39.9551 40.8657 40.2423 40.8657 40.5328C40.8657 40.8522 40.8657 41.1716 40.9291 41.4911H54.1133V47.8795H33.9567V42.3854C33.9567 35.7731 37.4452 31.9348 40.9165 28.1153C44.354 24.3331 47.7747 20.5693 47.7747 14.1486C47.7747 10.1239 46.3803 9.03791 44.1618 9.03791C41.9433 9.03791 40.5488 10.2517 40.5488 13.4459V18.2372H33.9567V13.8931C33.9567 6.73807 37.5063 2.64949 44.3519 2.64949C51.1976 2.64949 54.7471 6.73807 54.7471 13.8931C54.7471 22.0501 50.0713 27.2375 46.1471 31.5909C43.6744 34.3342 41.5001 36.7463 40.9824 39.3616C40.962 39.4643 40.9443 39.5672 40.9291 39.6706ZM13.5582 9.03791C11.3397 9.03791 9.94522 10.2517 9.94522 13.4459V37.5941C9.94522 40.7883 11.3397 42.0021 13.5582 42.0021C15.7767 42.0021 17.1712 40.7883 17.1712 37.5941V13.4459C17.1712 10.2517 15.7767 9.03791 13.5582 9.03791ZM13.5582 48.3905C6.71257 48.3905 2.97283 44.302 2.97283 37.1469V13.8931C2.97283 6.73807 6.71257 2.64949 13.5582 2.64949C20.4038 2.64949 24.1436 6.73807 24.1436 13.8931V37.1469C24.1436 44.302 20.4038 48.3905 13.5582 48.3905Z" fill="url(#paint0_linear_57_138)"/>
<defs>
<linearGradient id="paint0_linear_57_138" x1="31.6442" y1="-0.0336477" x2="31.6442" y2="51.0737" gradientUnits="userSpaceOnUse">
<stop stop-color="#F2C94C"/>
<stop offset="1" stop-color="#F2C94C" stop-opacity="0.5"/>
</linearGradient>
</defs>
</svg>
